<svg width="1294" height="44" viewBox="0 0 1294 44" fill="none" xmlns="http://www.w3.org/2000/svg">
<rect x="0.5" y="0.5" width="85" height="43" rx="7.5" fill="white"/>
<rect x="0.5" y="0.5" width="85" height="43" rx="7.5" stroke="#141414"/>
<rect x="8" y="7" width="70" height="30" rx="6" fill="#534029"/>
<rect x="100" width="86" height="44" rx="8" fill="#EBEBEB"/>
<rect x="200" width="88" height="44" rx="8" fill="#3A6A90"/>
<rect x="302" width="86" height="44" rx="8" fill="#11171D"/>
<rect x="402" width="86" height="44" rx="8" fill="#EBEBEB"/>
<rect x="502" width="88" height="44" rx="8" fill="#3A6A90"/>
<rect x="604" width="86" height="44" rx="8" fill="#11171D"/>
<rect x="704" width="86" height="44" rx="8" fill="#EBEBEB"/>
<rect x="804" width="88" height="44" rx="8" fill="#3A6A90"/>
<rect x="906" width="86" height="44" rx="8" fill="#11171D"/>
<rect x="1006" width="86" height="44" rx="8" fill="#EBEBEB"/>
<rect x="1106" width="88" height="44" rx="8" fill="#3A6A90"/>
<rect x="1208" width="86" height="44" rx="8" fill="#11171D"/>
</svg>
