<svg width="520" height="24" viewBox="0 0 520 24" fill="none" xmlns="http://www.w3.org/2000/svg">
<path d="M6.98 18.2C3.08 18.2 0.72 15.48 0.72 11.3C0.72 7.12 3.08 4.4 6.98 4.4C10.58 4.4 12.76 6.4 12.76 9.62V9.74H10.46V9.62C10.46 7.42 9.44 6.48 6.92 6.48C4.14 6.48 3.02 7.82 3.02 11.3C3.02 14.78 4.14 16.12 6.92 16.12C9.44 16.12 10.46 15.18 10.46 12.98V12.86H12.76V12.98C12.76 16.2 10.58 18.2 6.98 18.2ZM19.0966 18.2C16.0366 18.2 14.1366 16.12 14.1366 13.02C14.1366 9.94 16.0366 7.86 19.0966 7.86C22.1366 7.86 23.9766 9.94 23.9766 13.02C23.9766 16.12 22.1366 18.2 19.0966 18.2ZM19.0966 16.28C21.1766 16.28 21.8966 15.26 21.8966 13.02C21.8966 10.8 21.1766 9.78 19.0966 9.78C16.9966 9.78 16.2566 10.8 16.2566 13.02C16.2566 15.26 16.9966 16.28 19.0966 16.28ZM27.7708 18H25.6108V4.6H27.7708V18ZM34.37 18.2C31.31 18.2 29.41 16.12 29.41 13.02C29.41 9.94 31.31 7.86 34.37 7.86C37.41 7.86 39.25 9.94 39.25 13.02C39.25 16.12 37.41 18.2 34.37 18.2ZM34.37 16.28C36.45 16.28 37.17 15.26 37.17 13.02C37.17 10.8 36.45 9.78 34.37 9.78C32.27 9.78 31.53 10.8 31.53 13.02C31.53 15.26 32.27 16.28 34.37 16.28ZM43.0247 18H40.8647V8H42.8447V9.58H42.9447C43.3447 8.66 44.2647 7.86 45.7247 7.86C47.8047 7.86 48.6047 9.38 48.6047 11.24V11.9H46.4447V11.5C46.4447 10.18 46.0647 9.7 44.8047 9.7C43.5047 9.7 43.0247 10.2 43.0247 11.52V18ZM52.5625 11.16H49.8225V8.06H52.5625V11.16ZM52.5625 18H49.8225V14.9H52.5625V18Z" fill="#8F8F8F"/>
<path d="M60.7759 18H57.7759V4.6H63.9359C67.1359 4.6 68.9159 6.08 68.9159 8.68C68.9159 10.86 67.8359 12.16 65.5359 12.36V12.56C66.6959 12.92 67.2559 13.62 67.7759 14.64L69.4759 18H65.9759L64.3959 14.9C63.7959 13.74 63.3959 13.24 61.9759 13.24H60.7759V18ZM60.7759 7.3V10.76H64.0759C65.4759 10.76 65.9359 10.34 65.9359 9.02C65.9359 7.74 65.4759 7.3 64.0759 7.3H60.7759ZM74.8411 18.2C71.6011 18.2 69.6811 16.16 69.6811 12.98C69.6811 9.78 71.6011 7.74 74.8411 7.74C78.0611 7.74 79.9411 9.78 79.9411 12.98C79.9411 16.16 78.0611 18.2 74.8411 18.2ZM74.8411 15.56C76.4611 15.56 77.0211 14.92 77.0211 12.98C77.0211 11.02 76.4611 10.38 74.8411 10.38C73.2011 10.38 72.6411 11.02 72.6411 12.98C72.6411 14.92 73.2011 15.56 74.8411 15.56ZM82.8833 21.4C82.2033 21.4 81.4633 21.28 81.0433 21.18V18.7H82.7233C83.4833 18.7 83.7633 18.6 84.0633 17.96L84.2433 17.58L80.0233 7.94H83.3633L85.0033 12.14L85.7233 14.08H85.9433L86.5633 12.14L87.9833 7.94H91.3233L86.8433 18.7C85.9833 20.76 84.8633 21.4 82.8833 21.4ZM94.5203 18.2C92.7403 18.2 91.3603 17.26 91.3603 15.44C91.3603 13.88 92.4803 12.92 94.5603 12.6L98.0003 12.08V11.76C98.0003 10.58 97.3603 10.36 96.1803 10.36C94.9603 10.36 94.4803 10.7 94.4803 11.72V11.94H91.6203V11.72C91.6203 9.32 93.4803 7.74 96.3203 7.74C99.2803 7.74 100.84 9.36 100.84 12.04V18H98.0603V16.64H97.9403C97.4003 17.38 96.3803 18.2 94.5203 18.2ZM94.2203 15.2C94.2203 15.74 94.6403 15.92 95.5203 15.92C96.7403 15.92 98.0003 15.6 98.0003 14.04L95.1203 14.48C94.5003 14.58 94.2203 14.78 94.2203 15.2ZM105.599 18H102.619V4.6H105.599V18ZM118.192 18H111.272V4.6H117.872C120.732 4.6 122.272 5.62 122.272 7.94C122.272 9.54 121.372 10.58 119.592 10.8V11C121.752 11.16 122.812 12.52 122.812 14.32C122.812 16.58 121.252 18 118.192 18ZM114.272 7.3V9.9H117.672C118.792 9.9 119.272 9.66 119.272 8.6C119.272 7.52 118.772 7.3 117.672 7.3H114.272ZM114.272 12.34V15.3H118.092C119.192 15.3 119.792 15.1 119.792 13.84C119.792 12.54 119.212 12.34 118.092 12.34H114.272ZM127.279 18H124.299V7.94H127.079V9.56H127.199C127.699 8.54 128.599 7.74 130.019 7.74C132.119 7.74 132.899 9.3 132.899 11.32V12.24H129.919V11.7C129.919 10.62 129.579 10.28 128.639 10.28C127.719 10.28 127.279 10.6 127.279 11.7V18ZM138.884 18.2C135.644 18.2 133.724 16.16 133.724 12.98C133.724 9.78 135.644 7.74 138.884 7.74C142.104 7.74 143.984 9.78 143.984 12.98C143.984 16.16 142.104 18.2 138.884 18.2ZM138.884 15.56C140.504 15.56 141.064 14.92 141.064 12.98C141.064 11.02 140.504 10.38 138.884 10.38C137.244 10.38 136.684 11.02 136.684 12.98C136.684 14.92 137.244 15.56 138.884 15.56ZM150.443 18H146.523L144.183 7.94H147.483L148.143 12.58L148.523 15.6H148.743L149.303 12.58L150.523 7.94H154.343L155.583 12.6L156.123 15.6H156.323L156.683 12.6L157.383 7.94H160.543L158.203 18H154.283L152.983 13.22L152.483 10.58H152.263L151.763 13.22L150.443 18ZM164.447 18H161.467V7.94H164.247V9.7H164.367C164.907 8.56 165.987 7.74 167.747 7.74C170.367 7.74 171.487 9.48 171.487 11.62V18H168.487V12.22C168.487 10.82 168.027 10.32 166.507 10.32C165.067 10.32 164.447 10.78 164.447 12.3V18Z" fill="#292929"/>
</svg>
