<svg width="216" height="29" viewBox="0 0 216 29" fill="none" xmlns="http://www.w3.org/2000/svg">
<path d="M8.484 23.24C6.404 23.24 4.716 22.824 3.42 21.992C2.124 21.152 1.38 19.86 1.188 18.116L4.836 18.044C5.028 18.836 5.44 19.44 6.072 19.856C6.712 20.264 7.512 20.468 8.472 20.468C9.048 20.468 9.556 20.376 9.996 20.192C10.444 20 10.796 19.744 11.052 19.424C11.308 19.096 11.436 18.724 11.436 18.308C11.436 17.668 11.232 17.192 10.824 16.88C10.416 16.56 9.788 16.304 8.94 16.112L6.096 15.5C4.776 15.236 3.716 14.712 2.916 13.928C2.124 13.136 1.72 12.076 1.704 10.748C1.696 9.66 1.988 8.72 2.58 7.928C3.18 7.128 3.992 6.512 5.016 6.08C6.048 5.648 7.204 5.432 8.484 5.432C9.796 5.432 10.928 5.668 11.88 6.14C12.84 6.604 13.576 7.232 14.088 8.024C14.608 8.808 14.86 9.676 14.844 10.628L11.304 10.688C11.192 9.92 10.936 9.316 10.536 8.876C10.136 8.436 9.472 8.216 8.544 8.216C8.064 8.216 7.636 8.268 7.26 8.372C6.884 8.476 6.56 8.624 6.288 8.816C6.016 9 5.808 9.22 5.664 9.476C5.528 9.732 5.46 10.02 5.46 10.34C5.46 10.844 5.628 11.244 5.964 11.54C6.308 11.828 6.952 12.096 7.896 12.344L10.692 13.028C12.268 13.404 13.404 14.048 14.1 14.96C14.804 15.872 15.156 16.98 15.156 18.284C15.156 19.284 14.88 20.156 14.328 20.9C13.784 21.644 13.012 22.22 12.012 22.628C11.012 23.036 9.836 23.24 8.484 23.24ZM6.984 3.164H10.02V6.284H6.984V3.164ZM6.924 22.172H9.948V25.292H6.924V22.172ZM22.7779 23V21.272V20.384C22.7779 19.504 22.9419 18.744 23.2699 18.104C23.5979 17.456 24.0299 16.896 24.5659 16.424C25.1099 15.944 25.7019 15.524 26.3419 15.164C26.9899 14.804 27.6379 14.464 28.2859 14.144C28.9339 13.824 29.5259 13.504 30.0619 13.184C30.6059 12.856 31.0419 12.492 31.3699 12.092C31.6979 11.692 31.8619 11.22 31.8619 10.676C31.8619 9.98 31.6179 9.412 31.1299 8.972C30.6499 8.532 29.9899 8.312 29.1499 8.312C28.2779 8.312 27.5379 8.564 26.9299 9.068C26.3219 9.572 25.9459 10.332 25.8019 11.348H22.4539C22.4699 10.244 22.7259 9.244 23.2219 8.348C23.7259 7.444 24.4779 6.728 25.4779 6.2C26.4779 5.672 27.7339 5.408 29.2459 5.408C30.5419 5.408 31.6579 5.628 32.5939 6.068C33.5379 6.508 34.2659 7.12 34.7779 7.904C35.2899 8.688 35.5459 9.604 35.5459 10.652C35.5459 11.524 35.3859 12.276 35.0659 12.908C34.7459 13.54 34.3219 14.08 33.7939 14.528C33.2659 14.976 32.6859 15.368 32.0539 15.704C31.4219 16.04 30.7899 16.352 30.1579 16.64C29.5339 16.928 28.9579 17.224 28.4299 17.528C27.9019 17.824 27.4779 18.16 27.1579 18.536C26.8379 18.912 26.6779 19.364 26.6779 19.892V20.048H35.5219V23H22.7779ZM40.7843 23V10.004H37.6883V8.024C38.6803 8.024 39.4803 7.932 40.0883 7.748C40.7043 7.556 41.1643 7.284 41.4683 6.932C41.7723 6.572 41.9523 6.144 42.0083 5.648H44.3363V23H40.7843ZM49.7899 5.648H60.9379L60.8059 8.516H52.5619L52.2259 12.704C52.8659 12.344 53.4739 12.084 54.0499 11.924C54.6339 11.764 55.2739 11.684 55.9699 11.684C57.1299 11.684 58.1659 11.904 59.0779 12.344C59.9979 12.776 60.7259 13.412 61.2619 14.252C61.7979 15.092 62.0659 16.116 62.0659 17.324C62.0659 18.548 61.7899 19.604 61.2379 20.492C60.6859 21.38 59.9019 22.064 58.8859 22.544C57.8779 23.024 56.6819 23.264 55.2979 23.264C54.1619 23.264 53.1059 23.088 52.1299 22.736C51.1539 22.384 50.3099 21.904 49.5979 21.296C48.8859 20.68 48.3459 19.976 47.9779 19.184L50.7139 17.564C51.0259 18.108 51.3779 18.6 51.7699 19.04C52.1619 19.472 52.6139 19.816 53.1259 20.072C53.6459 20.32 54.2499 20.444 54.9379 20.444C55.9779 20.444 56.8139 20.168 57.4459 19.616C58.0779 19.064 58.3939 18.344 58.3939 17.456C58.3939 16.896 58.2499 16.396 57.9619 15.956C57.6819 15.508 57.2939 15.156 56.7979 14.9C56.3019 14.644 55.7219 14.516 55.0579 14.516C54.7059 14.516 54.3699 14.548 54.0499 14.612C53.7379 14.668 53.4179 14.78 53.0899 14.948C52.7699 15.108 52.4139 15.34 52.0219 15.644C51.9099 15.692 51.8299 15.716 51.7819 15.716C51.7419 15.716 51.6619 15.688 51.5419 15.632L48.9979 14.456L49.7899 5.648ZM64.3052 23V19.184H68.1452V23H64.3052ZM77.3379 5.408C79.4019 5.408 81.0299 6.18 82.2219 7.724C83.4139 9.26 84.0099 11.472 84.0099 14.36C84.0099 17.232 83.4219 19.436 82.2459 20.972C81.0699 22.5 79.4339 23.264 77.3379 23.264C75.2339 23.264 73.5899 22.5 72.4059 20.972C71.2299 19.444 70.6419 17.244 70.6419 14.372C70.6419 12.452 70.9139 10.824 71.4579 9.488C72.0019 8.152 72.7739 7.14 73.7739 6.452C74.7739 5.756 75.9619 5.408 77.3379 5.408ZM77.3379 20.396C78.3699 20.396 79.1259 19.936 79.6059 19.016C80.0859 18.088 80.3259 16.54 80.3259 14.372C80.3259 12.156 80.0819 10.568 79.5939 9.608C79.1059 8.648 78.3499 8.168 77.3259 8.168C76.3019 8.168 75.5379 8.652 75.0339 9.62C74.5379 10.588 74.2899 12.172 74.2899 14.372C74.2899 16.532 74.5379 18.076 75.0339 19.004C75.5299 19.932 76.2979 20.396 77.3379 20.396ZM92.7364 5.408C94.8004 5.408 96.4284 6.18 97.6204 7.724C98.8124 9.26 99.4084 11.472 99.4084 14.36C99.4084 17.232 98.8204 19.436 97.6444 20.972C96.4684 22.5 94.8324 23.264 92.7364 23.264C90.6324 23.264 88.9884 22.5 87.8044 20.972C86.6284 19.444 86.0404 17.244 86.0404 14.372C86.0404 12.452 86.3124 10.824 86.8564 9.488C87.4004 8.152 88.1724 7.14 89.1724 6.452C90.1724 5.756 91.3604 5.408 92.7364 5.408ZM92.7364 20.396C93.7684 20.396 94.5244 19.936 95.0044 19.016C95.4844 18.088 95.7244 16.54 95.7244 14.372C95.7244 12.156 95.4804 10.568 94.9924 9.608C94.5044 8.648 93.7484 8.168 92.7244 8.168C91.7004 8.168 90.9364 8.652 90.4324 9.62C89.9364 10.588 89.6884 12.172 89.6884 14.372C89.6884 16.532 89.9364 18.076 90.4324 19.004C90.9284 19.932 91.6964 20.396 92.7364 20.396Z" fill="#3C3C3C"/>
<path d="M125.04 23.24C123.272 23.24 121.8 22.852 120.624 22.076C119.448 21.3 118.74 20.164 118.5 18.668L120.468 18.512C120.74 19.544 121.276 20.316 122.076 20.828C122.884 21.332 123.868 21.584 125.028 21.584C125.724 21.584 126.384 21.464 127.008 21.224C127.64 20.976 128.152 20.632 128.544 20.192C128.944 19.744 129.144 19.22 129.144 18.62C129.144 17.82 128.908 17.176 128.436 16.688C127.972 16.192 127.236 15.8 126.228 15.512L123.192 14.684C121.912 14.34 120.9 13.828 120.156 13.148C119.42 12.468 119.048 11.556 119.04 10.412C119.04 9.436 119.296 8.576 119.808 7.832C120.32 7.08 121.032 6.492 121.944 6.068C122.864 5.644 123.932 5.432 125.148 5.432C126.3 5.432 127.292 5.656 128.124 6.104C128.956 6.552 129.604 7.144 130.068 7.88C130.532 8.608 130.788 9.4 130.836 10.256L128.928 10.4C128.736 9.296 128.324 8.464 127.692 7.904C127.068 7.344 126.216 7.064 125.136 7.064C124.632 7.064 124.136 7.132 123.648 7.268C123.168 7.396 122.732 7.592 122.34 7.856C121.956 8.12 121.648 8.452 121.416 8.852C121.184 9.252 121.068 9.72 121.068 10.256C121.068 10.912 121.296 11.432 121.752 11.816C122.216 12.2 123.052 12.58 124.26 12.956L127.164 13.808C128.604 14.224 129.628 14.856 130.236 15.704C130.852 16.544 131.16 17.504 131.16 18.584C131.16 19.488 130.9 20.292 130.38 20.996C129.868 21.692 129.152 22.24 128.232 22.64C127.312 23.04 126.248 23.24 125.04 23.24ZM124.26 3.02H126.048V6.116H124.26V3.02ZM124.104 22.472H125.892V25.568H124.104V22.472ZM139.841 23V21.74V21.08C139.841 20.192 140.005 19.424 140.333 18.776C140.669 18.12 141.109 17.552 141.653 17.072C142.205 16.584 142.809 16.148 143.465 15.764C144.121 15.372 144.773 14.992 145.421 14.624C146.077 14.256 146.677 13.872 147.221 13.472C147.773 13.064 148.213 12.604 148.541 12.092C148.877 11.572 149.045 10.96 149.045 10.256C149.045 9.312 148.713 8.552 148.049 7.976C147.393 7.392 146.509 7.1 145.397 7.1C144.189 7.1 143.229 7.44 142.517 8.12C141.805 8.792 141.413 9.672 141.341 10.76H139.445C139.469 9.784 139.713 8.892 140.177 8.084C140.641 7.276 141.317 6.628 142.205 6.14C143.093 5.652 144.185 5.408 145.481 5.408C146.601 5.408 147.577 5.612 148.409 6.02C149.241 6.42 149.885 6.984 150.341 7.712C150.797 8.44 151.025 9.288 151.025 10.256C151.025 11.152 150.857 11.924 150.521 12.572C150.193 13.212 149.757 13.772 149.213 14.252C148.677 14.724 148.085 15.148 147.437 15.524C146.797 15.9 146.149 16.264 145.493 16.616C144.845 16.968 144.249 17.34 143.705 17.732C143.169 18.124 142.737 18.576 142.409 19.088C142.081 19.592 141.917 20.196 141.917 20.9V21.296H151.145V23H139.841ZM159.219 23.264C158.291 23.264 157.427 23.088 156.627 22.736C155.827 22.384 155.155 21.884 154.611 21.236C154.067 20.588 153.723 19.808 153.579 18.896H155.415C155.631 19.72 156.071 20.388 156.735 20.9C157.407 21.404 158.215 21.656 159.159 21.656C160.239 21.656 161.159 21.372 161.919 20.804C162.679 20.228 163.243 19.344 163.611 18.152C163.987 16.96 164.131 15.436 164.043 13.58C163.859 14.244 163.543 14.828 163.095 15.332C162.647 15.828 162.107 16.22 161.475 16.508C160.851 16.788 160.159 16.928 159.399 16.928C158.263 16.928 157.263 16.708 156.399 16.268C155.543 15.82 154.875 15.18 154.395 14.348C153.915 13.508 153.675 12.504 153.675 11.336C153.675 10.168 153.907 9.14 154.371 8.252C154.843 7.356 155.515 6.66 156.387 6.164C157.259 5.66 158.303 5.408 159.519 5.408C160.823 5.408 161.955 5.752 162.915 6.44C163.883 7.128 164.627 8.12 165.147 9.416C165.675 10.712 165.939 12.272 165.939 14.096C165.939 16 165.679 17.64 165.159 19.016C164.647 20.384 163.891 21.436 162.891 22.172C161.891 22.9 160.667 23.264 159.219 23.264ZM159.543 15.296C160.223 15.296 160.867 15.14 161.475 14.828C162.083 14.508 162.579 14.08 162.963 13.544C163.347 13.008 163.539 12.416 163.539 11.768C163.547 10.848 163.383 10.032 163.047 9.32C162.719 8.6 162.251 8.032 161.643 7.616C161.035 7.2 160.323 6.992 159.507 6.992C158.763 6.992 158.103 7.172 157.527 7.532C156.959 7.884 156.515 8.38 156.195 9.02C155.875 9.66 155.715 10.4 155.715 11.24C155.715 12.472 156.035 13.456 156.675 14.192C157.315 14.928 158.271 15.296 159.543 15.296ZM174.217 5.408C176.041 5.408 177.501 6.156 178.597 7.652C179.701 9.148 180.253 11.384 180.253 14.36C180.253 17.32 179.705 19.544 178.609 21.032C177.513 22.52 176.041 23.264 174.193 23.264C172.345 23.264 170.877 22.524 169.789 21.044C168.701 19.564 168.157 17.348 168.157 14.396C168.157 12.404 168.409 10.744 168.913 9.416C169.417 8.08 170.121 7.08 171.025 6.416C171.929 5.744 172.993 5.408 174.217 5.408ZM174.229 21.596C175.517 21.596 176.501 21.028 177.181 19.892C177.861 18.756 178.201 16.912 178.201 14.36C178.201 11.776 177.857 9.912 177.169 8.768C176.481 7.616 175.493 7.04 174.205 7.04C172.925 7.04 171.933 7.62 171.229 8.78C170.525 9.932 170.173 11.792 170.173 14.36C170.173 16.904 170.525 18.748 171.229 19.892C171.933 21.028 172.933 21.596 174.229 21.596ZM182.786 23V20.432H185.102V23H182.786ZM193.811 5.408C195.635 5.408 197.095 6.156 198.191 7.652C199.295 9.148 199.846 11.384 199.846 14.36C199.846 17.32 199.299 19.544 198.203 21.032C197.107 22.52 195.635 23.264 193.787 23.264C191.939 23.264 190.471 22.524 189.383 21.044C188.295 19.564 187.751 17.348 187.751 14.396C187.751 12.404 188.003 10.744 188.507 9.416C189.011 8.08 189.715 7.08 190.619 6.416C191.523 5.744 192.587 5.408 193.811 5.408ZM193.823 21.596C195.111 21.596 196.095 21.028 196.775 19.892C197.455 18.756 197.795 16.912 197.795 14.36C197.795 11.776 197.451 9.912 196.763 8.768C196.075 7.616 195.087 7.04 193.799 7.04C192.519 7.04 191.527 7.62 190.823 8.78C190.119 9.932 189.767 11.792 189.767 14.36C189.767 16.904 190.119 18.748 190.823 19.892C191.527 21.028 192.527 21.596 193.823 21.596ZM208.107 5.408C209.931 5.408 211.391 6.156 212.487 7.652C213.591 9.148 214.143 11.384 214.143 14.36C214.143 17.32 213.595 19.544 212.499 21.032C211.403 22.52 209.931 23.264 208.083 23.264C206.235 23.264 204.767 22.524 203.679 21.044C202.591 19.564 202.047 17.348 202.047 14.396C202.047 12.404 202.299 10.744 202.803 9.416C203.307 8.08 204.011 7.08 204.915 6.416C205.819 5.744 206.883 5.408 208.107 5.408ZM208.119 21.596C209.407 21.596 210.391 21.028 211.071 19.892C211.751 18.756 212.091 16.912 212.091 14.36C212.091 11.776 211.747 9.912 211.059 8.768C210.371 7.616 209.383 7.04 208.095 7.04C206.815 7.04 205.823 7.62 205.119 8.78C204.415 9.932 204.063 11.792 204.063 14.36C204.063 16.904 204.415 18.748 205.119 19.892C205.823 21.028 206.823 21.596 208.119 21.596Z" fill="#B3B3B3"/>
<path d="M117 15.56H215.331V17.24H117V15.56Z" fill="#B3B3B3"/>
</svg>
