<svg width="385" height="15" viewBox="0 0 385 15" fill="none" xmlns="http://www.w3.org/2000/svg">
<path d="M1.40818 10.368H8.00018V11.6H0.000179768V0.239975H7.92018V1.47198H1.40818V5.08798H7.28018V6.28798H1.40818V10.368ZM9.51093 3.43997H10.7589V4.81598C11.1589 4.03198 11.9589 3.27997 13.4469 3.27997C15.2069 3.27997 16.1349 4.28798 16.1349 5.88798V11.6H14.8869V6.09598C14.8869 4.97598 14.3589 4.31998 13.0149 4.31998C11.7669 4.31998 10.7589 5.27998 10.7589 6.84798V11.6H9.51093V3.43997ZM18.0891 0.239975H19.3371V1.83998H18.0891V0.239975ZM19.3371 12.176C19.3371 13.744 18.8571 14.32 17.3211 14.32H16.6491V13.296H17.2731C17.9771 13.296 18.0891 13.056 18.0891 12.256V3.43997H19.3371V12.176ZM24.7627 11.792C22.3947 11.792 20.8587 9.98398 20.8587 7.51998C20.8587 5.08798 22.3947 3.27997 24.7627 3.27997C27.1307 3.27997 28.6667 5.08798 28.6667 7.51998C28.6667 9.98398 27.1307 11.792 24.7627 11.792ZM24.7627 10.752C26.3787 10.752 27.3227 9.39198 27.3227 7.51998C27.3227 5.66398 26.3787 4.31998 24.7627 4.31998C23.1467 4.31998 22.2027 5.66398 22.2027 7.51998C22.2027 9.39198 23.1467 10.752 24.7627 10.752ZM30.4433 3.43997L32.7793 10.096L35.1793 3.43997H36.4753L33.2113 12.032C32.5553 13.76 32.1073 14.32 30.7153 14.32H29.8033V13.28H30.4433C31.3393 13.28 31.6273 13.104 32.1713 11.6L29.0833 3.43997H30.4433ZM48.6404 2.11197H42.6724V4.99198H48.0484V6.71998H42.6724V11.6H40.4644V0.239975H48.6404V2.11197ZM54.9564 0.239975C57.3244 0.239975 58.8924 1.40798 58.8924 3.35997C58.8924 4.91198 57.9484 5.88798 56.4124 6.19198C57.9164 6.41598 58.3644 7.32798 58.5404 8.92798C58.6844 10.304 58.9884 11.056 59.3084 11.6H56.9404C56.7004 11.072 56.4604 10.448 56.3164 8.95998C56.1884 7.47198 55.6604 7.03998 54.1564 7.03998H52.1564V11.6H49.9644V0.239975H54.9564ZM54.4764 5.29598C55.9004 5.29598 56.6684 4.75198 56.6684 3.66398C56.6684 2.57598 55.9004 2.03197 54.4764 2.03197H52.1564V5.29598H54.4764ZM62.8599 9.72798H69.0679V11.6H60.6519V0.239975H68.9879V2.11197H62.8599V4.89598H68.3799V6.60798H62.8599V9.72798ZM72.8599 9.72798H79.0679V11.6H70.6519V0.239975H78.9879V2.11197H72.8599V4.89598H78.3799V6.60798H72.8599V9.72798ZM83.0123 7.51998C83.0123 5.08798 84.6603 3.27997 87.1563 3.27997C89.7163 3.27997 91.3003 5.27998 91.2043 7.96798H85.0923C85.1723 9.45598 85.9403 10.352 87.2043 10.352C88.2123 10.352 88.7723 9.75998 89.0283 9.00798H91.0443C90.5963 10.592 89.2683 11.792 87.1883 11.792C84.6923 11.792 83.0123 9.98398 83.0123 7.51998ZM89.1563 6.70398C88.9643 5.50398 88.2763 4.70398 87.1563 4.70398C86.0363 4.70398 85.3323 5.48798 85.1563 6.70398H89.1563ZM94.0243 7.43998L91.1603 3.43997H93.3203L95.0963 5.93598L96.8723 3.43997H98.9843L96.1363 7.40798L99.1443 11.6H96.9683L95.0643 8.92798L93.1603 11.6H91.0163L94.0243 7.43998ZM99.8502 3.43997H101.866V4.73598C102.346 3.85598 103.21 3.27997 104.378 3.27997C106.474 3.27997 107.818 5.05598 107.818 7.53598C107.818 9.99998 106.474 11.792 104.378 11.792C103.21 11.792 102.346 11.232 101.866 10.336V14.32H99.8502V3.43997ZM103.738 10.288C104.97 10.288 105.674 9.16798 105.674 7.53598C105.674 5.91998 104.97 4.78398 103.738 4.78398C102.506 4.78398 101.818 5.91998 101.818 7.53598C101.818 9.16798 102.506 10.288 103.738 10.288ZM113.405 3.43997H113.965V5.26398H113.181C111.821 5.26398 111.085 5.79198 111.069 7.45598V11.6H109.053V3.43997H111.021V4.95998C111.325 4.14398 112.093 3.43997 113.405 3.43997ZM114.231 7.51998C114.231 5.08798 115.879 3.27997 118.375 3.27997C120.935 3.27997 122.519 5.27998 122.423 7.96798H116.311C116.391 9.45598 117.159 10.352 118.423 10.352C119.431 10.352 119.991 9.75998 120.247 9.00798H122.263C121.815 10.592 120.487 11.792 118.407 11.792C115.911 11.792 114.231 9.98398 114.231 7.51998ZM120.375 6.70398C120.183 5.50398 119.495 4.70398 118.375 4.70398C117.255 4.70398 116.551 5.48798 116.375 6.70398H120.375ZM127.008 11.792C124.688 11.792 123.248 10.752 123.072 8.95998H125.136C125.248 9.98398 126 10.416 127.008 10.416C128 10.416 128.448 9.90398 128.448 9.29598C128.448 8.55998 127.904 8.39998 126.56 8.07998C124.736 7.64798 123.344 7.19998 123.344 5.63198C123.344 4.22398 124.72 3.26398 126.816 3.26398C128.976 3.26398 130.192 4.30398 130.4 5.72798H128.368C128.272 5.02398 127.712 4.60798 126.8 4.60798C125.92 4.60798 125.392 5.00798 125.392 5.48798C125.392 6.14398 126.064 6.28798 127.264 6.57598C129.088 7.00798 130.544 7.43998 130.544 9.16798C130.544 10.848 129.12 11.792 127.008 11.792ZM135.117 11.792C132.797 11.792 131.357 10.752 131.181 8.95998H133.245C133.357 9.98398 134.109 10.416 135.117 10.416C136.109 10.416 136.557 9.90398 136.557 9.29598C136.557 8.55998 136.013 8.39998 134.669 8.07998C132.845 7.64798 131.453 7.19998 131.453 5.63198C131.453 4.22398 132.829 3.26398 134.925 3.26398C137.085 3.26398 138.301 4.30398 138.509 5.72798H136.477C136.381 5.02398 135.821 4.60798 134.909 4.60798C134.029 4.60798 133.501 5.00798 133.501 5.48798C133.501 6.14398 134.173 6.28798 135.373 6.57598C137.197 7.00798 138.653 7.43998 138.653 9.16798C138.653 10.848 137.229 11.792 135.117 11.792ZM147.086 -2.47955e-05C147.662 -2.47955e-05 148.152 0.101309 148.558 0.303975C148.974 0.495975 149.294 0.773308 149.518 1.13597C149.742 1.49864 149.854 1.94131 149.854 2.46397C149.854 3.13598 149.635 3.70664 149.198 4.17598C148.771 4.64531 148.227 5.07198 147.566 5.45598L150.654 8.43198C150.931 8.10131 151.155 7.72264 151.326 7.29598C151.507 6.85864 151.656 6.38931 151.774 5.88798H153.198C153.027 6.57064 152.814 7.20531 152.558 7.79198C152.302 8.37864 151.971 8.89064 151.566 9.32798L153.902 11.6H151.998L150.606 10.256C150.35 10.48 150.083 10.688 149.806 10.88C149.539 11.0613 149.246 11.216 148.926 11.344C148.606 11.472 148.259 11.5733 147.886 11.648C147.523 11.7226 147.118 11.76 146.67 11.76C145.934 11.76 145.294 11.6426 144.75 11.408C144.216 11.1626 143.8 10.8053 143.502 10.336C143.214 9.86664 143.07 9.29598 143.07 8.62398C143.07 8.07998 143.166 7.61064 143.358 7.21598C143.56 6.82131 143.848 6.46931 144.222 6.15998C144.595 5.85064 145.032 5.55198 145.534 5.26398C145.31 5.00798 145.091 4.74131 144.878 4.46398C144.664 4.18664 144.488 3.88798 144.35 3.56798C144.211 3.23731 144.142 2.87998 144.142 2.49598C144.142 1.97331 144.259 1.52531 144.494 1.15197C144.728 0.778642 145.064 0.495975 145.502 0.303975C145.95 0.101309 146.478 -2.47955e-05 147.086 -2.47955e-05ZM146.382 6.14398C145.998 6.36798 145.667 6.59731 145.39 6.83198C145.123 7.05598 144.915 7.30664 144.766 7.58398C144.616 7.86131 144.542 8.19198 144.542 8.57598C144.542 9.16264 144.739 9.63198 145.134 9.98398C145.528 10.336 146.056 10.512 146.718 10.512C147.4 10.512 147.987 10.4 148.478 10.176C148.968 9.95198 149.379 9.68531 149.71 9.37598L146.382 6.14398ZM147.038 1.15197C146.59 1.15197 146.222 1.26931 145.934 1.50397C145.656 1.73864 145.518 2.06398 145.518 2.47997C145.518 2.86397 145.619 3.22131 145.822 3.55198C146.024 3.87198 146.318 4.22931 146.702 4.62398C147.331 4.26131 147.779 3.91998 148.046 3.59998C148.323 3.26931 148.462 2.89064 148.462 2.46397C148.462 2.07997 148.334 1.76531 148.078 1.51997C147.822 1.27464 147.475 1.15197 147.038 1.15197ZM166.344 2.11197H160.376V4.99198H165.752V6.71998H160.376V11.6H158.168V0.239975H166.344V2.11197ZM171.39 3.43997H171.95V5.26398H171.166C169.806 5.26398 169.07 5.79198 169.054 7.45598V11.6H167.038V3.43997H169.006V4.95998C169.31 4.14398 170.078 3.43997 171.39 3.43997ZM172.215 7.51998C172.215 5.08798 173.863 3.27997 176.359 3.27997C178.919 3.27997 180.503 5.27998 180.407 7.96798H174.295C174.375 9.45598 175.143 10.352 176.407 10.352C177.415 10.352 177.975 9.75998 178.231 9.00798H180.247C179.799 10.592 178.471 11.792 176.391 11.792C173.895 11.792 172.215 9.98398 172.215 7.51998ZM178.359 6.70398C178.167 5.50398 177.479 4.70398 176.359 4.70398C175.239 4.70398 174.535 5.48798 174.359 6.70398H178.359ZM181.184 7.51998C181.184 5.08798 182.832 3.27997 185.328 3.27997C187.888 3.27997 189.472 5.27998 189.376 7.96798H183.264C183.344 9.45598 184.112 10.352 185.376 10.352C186.384 10.352 186.944 9.75998 187.2 9.00798H189.216C188.768 10.592 187.44 11.792 185.36 11.792C182.864 11.792 181.184 9.98398 181.184 7.51998ZM187.328 6.70398C187.136 5.50398 186.448 4.70398 185.328 4.70398C184.208 4.70398 183.504 5.48798 183.328 6.70398H187.328ZM198.753 0.239975C201.121 0.239975 202.689 1.40798 202.689 3.35997C202.689 4.91198 201.745 5.88798 200.209 6.19198C201.713 6.41598 202.161 7.32798 202.337 8.92798C202.481 10.304 202.785 11.056 203.105 11.6H200.737C200.497 11.072 200.257 10.448 200.113 8.95998C199.985 7.47198 199.457 7.03998 197.953 7.03998H195.953V11.6H193.761V0.239975H198.753ZM198.273 5.29598C199.697 5.29598 200.465 4.75198 200.465 3.66398C200.465 2.57598 199.697 2.03197 198.273 2.03197H195.953V5.29598H198.273ZM203.559 7.51998C203.559 5.08798 205.207 3.27997 207.703 3.27997C210.263 3.27997 211.847 5.27998 211.751 7.96798H205.639C205.719 9.45598 206.487 10.352 207.751 10.352C208.759 10.352 209.319 9.75998 209.575 9.00798H211.591C211.143 10.592 209.815 11.792 207.735 11.792C205.239 11.792 203.559 9.98398 203.559 7.51998ZM209.703 6.70398C209.511 5.50398 208.823 4.70398 207.703 4.70398C206.583 4.70398 205.879 5.48798 205.703 6.70398H209.703ZM217.124 4.83198H215.332V9.24798C215.332 9.95198 215.508 10.144 216.164 10.144H217.124V11.6H215.508C213.844 11.6 213.316 10.896 213.316 9.39198V4.83198H212.1V3.43997H213.316V1.26398H215.332V3.43997H217.124V4.83198ZM220.88 11.792C219.184 11.792 218.224 10.704 218.224 9.02398V3.43997H220.24V8.59198C220.24 9.58398 220.656 10.192 221.696 10.192C222.704 10.192 223.44 9.37598 223.44 8.09598V3.43997H225.456V11.6H223.472V10.288C223.024 11.088 222.256 11.792 220.88 11.792ZM231.437 3.43997H231.997V5.26398H231.213C229.853 5.26398 229.117 5.79198 229.101 7.45598V11.6H227.085V3.43997H229.053V4.95998C229.357 4.14398 230.125 3.43997 231.437 3.43997ZM232.944 3.43997H234.928V4.76798C235.392 3.98398 236.192 3.27997 237.584 3.27997C239.344 3.27997 240.272 4.35198 240.272 6.01598V11.6H238.24V6.46398C238.24 5.47198 237.84 4.86398 236.752 4.86398C235.712 4.86398 234.96 5.67998 234.96 6.95998V11.6H232.944V3.43997ZM245.227 11.792C242.907 11.792 241.467 10.752 241.291 8.95998H243.355C243.467 9.98398 244.219 10.416 245.227 10.416C246.219 10.416 246.667 9.90398 246.667 9.29598C246.667 8.55998 246.123 8.39998 244.779 8.07998C242.955 7.64798 241.563 7.19998 241.563 5.63198C241.563 4.22398 242.939 3.26398 245.035 3.26398C247.195 3.26398 248.411 4.30398 248.619 5.72798H246.587C246.491 5.02398 245.931 4.60798 245.019 4.60798C244.139 4.60798 243.611 5.00798 243.611 5.48798C243.611 6.14398 244.283 6.28798 245.483 6.57598C247.307 7.00798 248.763 7.43998 248.763 9.16798C248.763 10.848 247.339 11.792 245.227 11.792ZM256.747 11.792C254.379 11.792 252.843 9.98398 252.843 7.51998C252.843 5.08798 254.379 3.27997 256.747 3.27997C259.115 3.27997 260.651 5.08798 260.651 7.51998C260.651 9.98398 259.115 11.792 256.747 11.792ZM256.747 10.752C258.363 10.752 259.307 9.39198 259.307 7.51998C259.307 5.66398 258.363 4.31998 256.747 4.31998C255.131 4.31998 254.187 5.66398 254.187 7.51998C254.187 9.39198 255.131 10.752 256.747 10.752ZM262.167 3.43997H263.415V4.81598C263.815 4.03198 264.615 3.27997 266.103 3.27997C267.863 3.27997 268.791 4.28798 268.791 5.88798V11.6H267.543V6.09598C267.543 4.97598 267.015 4.31998 265.671 4.31998C264.423 4.31998 263.415 5.27998 263.415 6.84798V11.6H262.167V3.43997ZM277.356 11.792C274.988 11.792 273.452 9.98398 273.452 7.51998C273.452 5.08798 274.988 3.27997 277.356 3.27997C279.724 3.27997 281.26 5.08798 281.26 7.51998C281.26 9.98398 279.724 11.792 277.356 11.792ZM277.356 10.752C278.972 10.752 279.916 9.39198 279.916 7.51998C279.916 5.66398 278.972 4.31998 277.356 4.31998C275.74 4.31998 274.796 5.66398 274.796 7.51998C274.796 9.39198 275.74 10.752 277.356 10.752ZM286.409 3.43997H286.969V4.63998H286.105C284.713 4.63998 283.993 5.19998 284.025 6.95998V11.6H282.777V3.43997H283.993V4.95998C284.345 4.07998 285.129 3.43997 286.409 3.43997ZM290.847 11.792C288.735 11.792 287.359 9.99998 287.359 7.53598C287.359 5.07198 288.735 3.27997 290.847 3.27997C292.063 3.27997 292.943 3.82398 293.471 4.76798V0.239975H294.719V11.6H293.471V10.304C292.943 11.248 292.063 11.792 290.847 11.792ZM291.103 10.752C292.639 10.752 293.503 9.39198 293.503 7.53598C293.503 5.67998 292.639 4.31998 291.103 4.31998C289.567 4.31998 288.703 5.67998 288.703 7.53598C288.703 9.39198 289.567 10.752 291.103 10.752ZM296.234 7.51998C296.234 5.08798 297.754 3.27997 300.154 3.27997C302.634 3.27997 304.122 5.31198 304.01 7.77598H297.578C297.642 9.55198 298.57 10.752 300.218 10.752C301.514 10.752 302.202 9.96798 302.522 9.00798H303.85C303.386 10.64 302.106 11.792 300.218 11.792C297.802 11.792 296.234 9.98398 296.234 7.51998ZM302.666 6.78398C302.426 5.31198 301.562 4.31998 300.154 4.31998C298.73 4.31998 297.85 5.29598 297.626 6.78398H302.666ZM309.143 3.43997H309.703V4.63998H308.839C307.447 4.63998 306.727 5.19998 306.759 6.95998V11.6H305.511V3.43997H306.727V4.95998C307.079 4.07998 307.863 3.43997 309.143 3.43997ZM313.739 11.792C311.515 11.792 310.203 10.736 310.059 8.95998H311.355C311.483 10.32 312.491 10.8 313.739 10.8C315.083 10.8 315.611 10.112 315.611 9.34398C315.611 8.43198 315.019 8.20798 313.515 7.82398C311.931 7.42398 310.363 7.10398 310.363 5.45598C310.363 4.17598 311.595 3.24798 313.515 3.24798C315.499 3.24798 316.619 4.28798 316.811 5.71198H315.531C315.403 4.76798 314.683 4.23998 313.515 4.23998C312.363 4.23998 311.675 4.76798 311.675 5.39198C311.675 6.22398 312.523 6.43198 313.915 6.78398C315.595 7.19998 316.923 7.63198 316.923 9.26398C316.923 10.88 315.643 11.792 313.739 11.792ZM325.028 11.792C322.66 11.792 321.124 9.98398 321.124 7.51998C321.124 5.08798 322.66 3.27997 325.028 3.27997C327.396 3.27997 328.932 5.08798 328.932 7.51998C328.932 9.98398 327.396 11.792 325.028 11.792ZM325.028 10.752C326.644 10.752 327.588 9.39198 327.588 7.51998C327.588 5.66398 326.644 4.31998 325.028 4.31998C323.412 4.31998 322.468 5.66398 322.468 7.51998C322.468 9.39198 323.412 10.752 325.028 10.752ZM335.333 3.43997H336.645L333.717 11.6H332.293L329.381 3.43997H330.757L333.045 10.32L335.333 3.43997ZM337.093 7.51998C337.093 5.08798 338.613 3.27997 341.013 3.27997C343.493 3.27997 344.981 5.31198 344.869 7.77598H338.437C338.501 9.55198 339.429 10.752 341.077 10.752C342.373 10.752 343.061 9.96798 343.381 9.00798H344.709C344.245 10.64 342.965 11.792 341.077 11.792C338.661 11.792 337.093 9.98398 337.093 7.51998ZM343.525 6.78398C343.285 5.31198 342.421 4.31998 341.013 4.31998C339.589 4.31998 338.709 5.29598 338.485 6.78398H343.525ZM350.002 3.43997H350.562V4.63998H349.698C348.306 4.63998 347.586 5.19998 347.618 6.95998V11.6H346.37V3.43997H347.586V4.95998C347.938 4.07998 348.722 3.43997 350.002 3.43997ZM358.863 0.0319748C359.449 0.0319748 359.977 0.0959749 360.447 0.223975C360.916 0.351975 361.332 0.506641 361.695 0.687975L361.199 1.80797C360.879 1.65864 360.521 1.51998 360.127 1.39198C359.743 1.26398 359.332 1.19998 358.895 1.19998C358.287 1.19998 357.823 1.35998 357.503 1.67998C357.183 1.98931 357.023 2.49598 357.023 3.19998V5.42398H360.287V6.47998H357.023V8.14398C357.023 8.57064 356.969 8.92798 356.863 9.21598C356.767 9.49331 356.633 9.71731 356.463 9.88798C356.303 10.0586 356.127 10.2026 355.935 10.32H362.079V11.6H354.031V10.416C354.34 10.3413 354.612 10.2186 354.847 10.048C355.081 9.86664 355.268 9.62664 355.407 9.32798C355.545 9.01864 355.615 8.62931 355.615 8.15998V6.47998H354.079V5.42398H355.615V3.05597C355.615 2.41597 355.748 1.87197 356.015 1.42397C356.281 0.975975 356.66 0.634642 357.151 0.399975C357.641 0.154641 358.212 0.0319748 358.863 0.0319748ZM364.755 3.63198H363.411C363.523 1.29597 365.235 0.0479746 367.491 0.0479746C369.827 0.0479746 371.219 1.19998 371.219 2.99197C371.219 4.36798 370.275 5.21598 368.851 5.43998C370.531 5.63198 371.587 6.75198 371.587 8.27198C371.587 10.384 370.163 11.792 367.507 11.792C364.707 11.792 363.491 10.176 363.219 8.19198H364.579C364.819 9.71198 365.619 10.704 367.491 10.704C369.235 10.704 370.227 9.75998 370.227 8.27198C370.227 6.73598 369.011 5.99998 367.123 5.99998H366.787V4.95998H367.107C368.691 4.95998 369.859 4.31998 369.859 2.99197C369.859 1.83998 368.963 1.10398 367.491 1.10398C366.019 1.10398 364.867 1.91998 364.755 3.63198ZM377.309 3.91998C379.693 3.91998 381.053 5.72798 381.053 7.83998C381.053 9.96798 379.773 11.792 377.037 11.792C374.301 11.792 372.989 9.98398 372.813 8.30398H374.189C374.381 9.55198 375.261 10.704 377.037 10.704C378.797 10.704 379.693 9.48798 379.693 7.83998C379.693 6.20798 378.733 5.00798 377.005 5.00798C375.981 5.00798 374.989 5.55198 374.445 6.46398H373.101L373.853 0.239975H380.573V1.35997H374.957L374.477 5.31198C374.989 4.52798 375.965 3.91998 377.309 3.91998ZM382.779 3.91998V0.239975H384.091V3.91998L383.723 8.55998H383.147L382.779 3.91998ZM384.235 9.99998V11.6H382.635V9.99998H384.235Z" fill="#3C3C3C"/>
<path d="M39.4404 13.2H139.019V14H39.4404V13.2ZM157.144 13.2H249.128V14H157.144V13.2Z" fill="#3C3C3C"/>
</svg>
