<svg width="96" height="32" viewBox="0 0 96 32" fill="none" xmlns="http://www.w3.org/2000/svg">
<path d="M11.0277 19.464H17.0117V21H9.29969V9.64H11.0277V19.464ZM17.3156 16.92C17.3156 14.488 18.8996 12.68 21.3316 12.68C23.8596 12.68 25.3796 14.696 25.2676 17.256H18.9796C19.0436 18.904 19.9076 19.976 21.3956 19.976C22.5476 19.976 23.1876 19.272 23.4916 18.408H25.1076C24.6596 20.024 23.3636 21.192 21.3796 21.192C18.9316 21.192 17.3156 19.384 17.3156 16.92ZM23.6196 16.152C23.3956 14.792 22.6116 13.896 21.3316 13.896C20.0356 13.896 19.2516 14.776 19.0276 16.152H23.6196ZM28.9749 21.192C27.3909 21.192 26.1429 20.296 26.1429 18.696C26.1429 17.048 27.4069 16.584 29.4069 16.056C30.6869 15.704 31.5509 15.544 31.5509 14.872C31.5509 14.28 30.9749 13.832 29.8869 13.832C28.7829 13.832 28.0789 14.296 27.9829 15.224H26.3829C26.5909 13.768 27.8069 12.68 29.9029 12.68C31.9669 12.68 33.1669 13.576 33.1669 15.208V21H31.6469V19.544C31.3589 20.44 30.5109 21.192 28.9749 21.192ZM29.4229 20.04C30.8149 20.04 31.6149 18.84 31.6149 17.48V15.96C31.4229 16.424 30.8469 16.68 29.9029 16.952C28.6389 17.304 27.8069 17.672 27.8069 18.648C27.8069 19.544 28.4949 20.04 29.4229 20.04ZM38.9034 12.84H39.4634V14.312H38.6314C37.2714 14.312 36.5514 14.856 36.5354 16.52V21H34.9514V12.84H36.5034V14.36C36.8234 13.512 37.6074 12.84 38.9034 12.84ZM40.5139 12.84H42.0819V14.2C42.5139 13.416 43.3139 12.68 44.7539 12.68C46.5139 12.68 47.4419 13.72 47.4419 15.352V21H45.8579V15.656C45.8579 14.6 45.3779 13.96 44.1459 13.96C42.9939 13.96 42.0979 14.856 42.0979 16.296V21H40.5139V12.84ZM52.3421 12.84H53.9101V14.168C54.4061 13.288 55.2381 12.68 56.4861 12.68C57.6701 12.68 58.4861 13.272 58.7901 14.344C59.2541 13.352 60.1821 12.68 61.4781 12.68C62.8861 12.68 63.9101 13.544 63.9101 15.192V21H62.3101V15.64C62.3101 14.536 61.8141 13.96 60.7901 13.96C59.7181 13.96 58.9181 14.888 58.9181 16.28V21H57.3341V15.64C57.3341 14.536 56.8221 13.96 55.7981 13.96C54.7421 13.96 53.9261 14.888 53.9261 16.28V21H52.3421V12.84ZM69.2378 21.192C66.8058 21.192 65.2218 19.384 65.2218 16.92C65.2218 14.488 66.8058 12.68 69.2378 12.68C71.6538 12.68 73.2378 14.488 73.2378 16.92C73.2378 19.384 71.6538 21.192 69.2378 21.192ZM69.2378 19.96C70.6938 19.96 71.5418 18.696 71.5418 16.92C71.5418 15.16 70.6938 13.912 69.2378 13.912C67.7658 13.912 66.9178 15.16 66.9178 16.92C66.9178 18.696 67.7658 19.96 69.2378 19.96ZM78.5753 12.84H79.1353V14.312H78.3033C76.9433 14.312 76.2233 14.856 76.2073 16.52V21H74.6233V12.84H76.1753V14.36C76.4953 13.512 77.2793 12.84 78.5753 12.84ZM79.4249 16.92C79.4249 14.488 81.0089 12.68 83.4409 12.68C85.9689 12.68 87.4889 14.696 87.3769 17.256H81.0889C81.1529 18.904 82.0169 19.976 83.5049 19.976C84.6569 19.976 85.2969 19.272 85.6009 18.408H87.2169C86.7689 20.024 85.4729 21.192 83.4889 21.192C81.0409 21.192 79.4249 19.384 79.4249 16.92ZM85.7289 16.152C85.5049 14.792 84.7209 13.896 83.4409 13.896C82.1449 13.896 81.3609 14.776 81.1369 16.152H85.7289Z" fill="#212B36"/>
<path d="M8.17969 22.6H87.8249V23.4H8.17969V22.6Z" fill="#212B36"/>
</svg>
