<svg width="48" height="48" viewBox="0 0 48 48" fill="none" xmlns="http://www.w3.org/2000/svg">
<g clip-path="url(#clip0_1_2362)">
<path d="M21.6333 1.2241C21.6333 0.683085 22.0719 0.244507 22.6129 0.244507H24.5721C25.1131 0.244507 25.5517 0.683085 25.5517 1.2241V3.18328C25.5517 3.7243 25.1131 4.16287 24.5721 4.16287H22.6129C22.0719 4.16287 21.6333 3.7243 21.6333 3.18328V1.2241Z" fill="#E0E3EA"/>
<path d="M18.6122 18.0406C19.559 18.0406 20.3265 17.2731 20.3265 16.3263C20.3265 15.3795 19.559 14.612 18.6122 14.612C17.6655 14.612 16.8979 15.3795 16.8979 16.3263C16.8979 17.2731 17.6655 18.0406 18.6122 18.0406Z" stroke="#121212" stroke-width="1.46939"/>
<path d="M17.1427 33.4691H20.0806C20.3512 33.4691 20.5704 33.2499 20.5704 32.9793V28.8541C20.5704 28.679 20.664 28.5173 20.8156 28.4298C21.2704 28.1674 21.5509 27.682 21.5509 27.1569V21.714C21.5509 21.173 21.1123 20.7344 20.5713 20.7344H16.6529C16.1119 20.7344 15.6733 21.173 15.6733 21.714V27.1572C15.6733 27.6822 15.9534 28.1673 16.408 28.4297C16.5596 28.5173 16.6529 28.6789 16.6529 28.854V32.9793C16.6529 33.2499 16.8723 33.4691 17.1427 33.4691Z" stroke="#121212" stroke-width="1.46939"/>
<path d="M28.4081 18.0406C29.3549 18.0406 30.1224 17.2731 30.1224 16.3263C30.1224 15.3795 29.3549 14.612 28.4081 14.612C27.4614 14.612 26.6938 15.3795 26.6938 16.3263C26.6938 17.2731 27.4614 18.0406 28.4081 18.0406Z" stroke="#121212" stroke-width="1.46939"/>
<path d="M27.0903 33.4693H30.0283C30.2987 33.4693 30.518 33.2499 30.5181 32.9795L30.5184 28.0814C30.5184 27.8109 30.7377 27.5916 31.0082 27.5916H32.2512C32.5892 27.5916 32.8256 27.2573 32.7128 26.9385L30.7494 21.3879C30.6109 20.9967 30.2409 20.7351 29.826 20.735L27.2768 20.7346C26.8697 20.7345 26.505 20.9862 26.3607 21.3668L24.2515 26.9281C24.13 27.2486 24.3667 27.5916 24.7095 27.5916H26.111C26.3816 27.5916 26.6009 27.8109 26.6008 28.0814L26.6005 32.9794C26.6005 33.2499 26.8198 33.4693 27.0903 33.4693Z" stroke="#121212" stroke-width="1.46939"/>
</g>
<defs>
<clipPath id="clip0_1_2362">
<rect width="48" height="48" fill="white"/>
</clipPath>
</defs>
</svg>
